<?xml version="1.0" encoding="utf-8"?>
<!-- Generator: Adobe Illustrator 18.1.0, SVG Export Plug-In . SVG Version: 6.00 Build 0)  -->
<svg version="1.1" id="Layer_1" xmlns="http://www.w3.org/2000/svg" xmlns:xlink="http://www.w3.org/1999/xlink" x="0px" y="0px"
	 viewBox="0 0 20.3 40.7" enable-background="new 0 0 20.3 40.7" xml:space="preserve">
<path fill="#1D305D" d="M20,40.7c-1.1-1.1-2.2-2.2-3.2-3.3c-0.5-0.5-0.9-0.7-1.6-0.7c-4.2,0-8.4,0-12.5,0c-1.4,0-2.2-0.8-2.2-2.2
	c0-3.8,0-7.6,0-11.4c0-1.4,0.8-2.2,2.2-2.2c5.1,0,10.2,0,15.3,0c1.4,0,2.1,0.8,2.1,2.1c0,5.7,0,11.4,0,17.1C20,40.4,20,40.5,20,40.7
	z M4.3,28c0,0.7,0,1.3,0,1.9c3.9,0,7.8,0,11.7,0c0-0.7,0-1.3,0-1.9C12.1,28,8.2,28,4.3,28z M4.3,25.9c4,0,7.8,0,11.7,0
	c0-0.6,0-1.2,0-1.8c-3.9,0-7.8,0-11.7,0C4.3,24.7,4.3,25.3,4.3,25.9z M13.1,33.8c0-0.6,0-1.3,0-1.9c-2.9,0-5.8,0-8.7,0
	c0,0.7,0,1.3,0,1.9C7.3,33.8,10.1,33.8,13.1,33.8z"/>
<g id="h6Muub.tif_2_">
	<g>
		<path fill="#1D305D" d="M10.3,7.3c0.7,0,1.3-0.7,1-1.4c-0.1-0.3-0.4-0.7-0.8-0.7C9.8,5,9.2,5.5,9.2,6.2C9.2,6.9,9.7,7.3,10.3,7.3z
			"/>
		<path fill="#1D305D" d="M11,12.4c-0.7,0-1.3,0.7-1.1,1.4c0.1,0.5,0.5,0.8,1,0.8c0.6,0,1.1-0.4,1.2-1.1
			C12.2,12.9,11.7,12.4,11,12.4z"/>
		<path fill="#1D305D" d="M19,0l-8.9,0C9.9,0,9.6,0.1,9.5,0.3L0.2,9.5c-0.3,0.3-0.3,0.8,0,1.2L9.3,20c0.3,0.3,0.9,0.3,1.2,0l9.6-9.7
			c0.2-0.2,0.2-0.4,0.2-0.6l0-8.4C20.3,0.6,19.7,0,19,0z M10.3,3.7c1.4,0,2.5,1.2,2.5,2.5c0,1.3-1.1,2.4-2.5,2.5
			C9,8.7,7.8,7.6,7.8,6.2C7.8,4.8,9,3.7,10.3,3.7z M11.1,16c-1.4,0-2.5-1.1-2.5-2.4c0-1.4,1.1-2.5,2.5-2.5c1.4,0,2.5,1.1,2.5,2.5
			C13.5,14.9,12.5,16,11.1,16z M15.5,10.1c-3.2,0.3-6.3,0.6-9.6,1c-0.3,0-0.7-0.1-0.8-0.6c0-0.5,0.3-0.7,0.8-0.7
			c3.1-0.3,6.3-0.6,9.4-1c0.5,0,0.8,0.1,0.9,0.6C16.3,9.8,16,10,15.5,10.1z M17.8,3.7c-0.6,0-1-0.4-1.1-1c0-0.6,0.4-1.1,1.1-1.1
			c0.6,0,1,0.5,1,1C18.8,3.3,18.4,3.7,17.8,3.7z"/>
	</g>
</g>
</svg>
